<svg width="22" height="22" viewBox="0 0 22 22" fill="none" xmlns="http://www.w3.org/2000/svg">
<path d="M10.4505 0.0757637C10.0501 0.264528 9.78982 0.704979 8.70865 3.03307C8.10801 4.33345 7.49735 5.53944 7.34719 5.72821C6.81662 6.38888 6.35612 6.5357 3.58313 6.95518C2.01144 7.18589 0.910256 7.40611 0.70003 7.52147C0.0893723 7.84656 -0.180919 8.68552 0.129415 9.29376C0.209502 9.45106 1.1405 10.4683 2.19164 11.5694C3.38292 12.8069 4.18378 13.7192 4.30391 13.9814C4.5742 14.6001 4.54417 15.2608 4.09368 17.9664C3.87345 19.2878 3.69325 20.5147 3.69325 20.6721C3.69325 21.0915 3.95353 21.5634 4.32393 21.7942C4.9446 22.1927 5.21489 22.1088 7.8277 20.6721L10.2503 19.3297H11.0011H11.7519L14.1745 20.6616C16.7974 22.1088 17.0576 22.1927 17.6783 21.7942C18.0487 21.5634 18.309 21.0915 18.309 20.6721C18.309 20.5147 18.1288 19.2878 17.9086 17.9664C17.4681 15.3342 17.428 14.6526 17.6583 14.0548C17.7584 13.8136 18.5593 12.8803 19.8607 11.517C21.1621 10.1432 21.9229 9.2623 21.9629 9.07353C22.1131 8.44432 21.7927 7.69975 21.2622 7.46903C21.092 7.39563 19.8106 7.16491 18.4091 6.95518C15.6361 6.52521 15.1756 6.3784 14.6551 5.7387C14.5049 5.54993 13.8742 4.30199 13.2636 2.98064C12.6429 1.63831 12.0122 0.442806 11.8721 0.306477C11.5817 0.0338154 10.8109 -0.0920258 10.4505 0.0757637Z" fill="#2D7868" fill-opacity="0.20"/>
</svg>
