<svg width="20" height="19" viewBox="0 0 20 19" fill="#4D2D7868" xmlns="http://www.w3.org/2000/svg">
<path d="M9.52741 0.0541632C9.18366 0.208851 8.96022 0.569788 8.03209 2.4776C7.51647 3.54323 6.99225 4.53151 6.86334 4.68619C6.40787 5.2276 6.01256 5.34791 3.63209 5.69166C2.28287 5.88073 1.33756 6.06119 1.15709 6.15573C0.632874 6.42213 0.400843 7.10963 0.667249 7.60807C0.735999 7.73698 1.53522 8.57057 2.43756 9.47291C3.46022 10.487 4.14772 11.2346 4.25084 11.4495C4.48287 11.9565 4.45709 12.4979 4.07037 14.7151C3.88131 15.7979 3.72662 16.8034 3.72662 16.9323C3.72662 17.276 3.95006 17.6628 4.26803 17.8518C4.80084 18.1784 5.03287 18.1096 7.27584 16.9323L9.35553 15.8323H10.0001H10.6446L12.7243 16.9237C14.9758 18.1096 15.1993 18.1784 15.7321 17.8518C16.0501 17.6628 16.2735 17.276 16.2735 16.9323C16.2735 16.8034 16.1188 15.7979 15.9297 14.7151C15.5516 12.5581 15.5172 11.9995 15.7149 11.5096C15.8008 11.312 16.4883 10.5471 17.6055 9.42995C18.7227 8.30416 19.3758 7.58229 19.4102 7.4276C19.5391 6.91198 19.2641 6.30182 18.8087 6.11276C18.6626 6.0526 17.5626 5.86354 16.3594 5.69166C13.979 5.33932 13.5837 5.21901 13.1368 4.69479C13.0079 4.5401 12.4665 3.51744 11.9422 2.43463C11.4094 1.33463 10.868 0.354944 10.7477 0.243226C10.4985 0.0197882 9.83678 -0.0833368 9.52741 0.0541632Z" fill="#2D7868"/>
</svg>
